<?xml version="1.0" standalone="no"?>
<!DOCTYPE svg PUBLIC "-//W3C//DTD SVG 20010904//EN"
 "http://www.w3.org/TR/2001/REC-SVG-20010904/DTD/svg10.dtd">
<svg version="1.0" xmlns="http://www.w3.org/2000/svg"
 width="200.000000pt" height="100.000000pt" viewBox="0 0 200.000000 100.000000"
 preserveAspectRatio="xMidYMid meet">

<g transform="translate(0.000000,100.000000) scale(0.100000,-0.100000)"
fill="#000000" stroke="none">
<path d="M905 818 c-50 -84 -98 -161 -107 -170 -12 -12 -27 -15 -52 -11 -28 4
-37 2 -42 -12 -12 -30 -36 43 -29 86 13 78 -34 131 -103 114 -31 -7 -135 -112
-172 -173 l-25 -41 -165 -1 c-190 -1 -191 2 17 -76 73 -27 133 -54 133 -60 0
-6 11 -21 24 -33 24 -22 24 -23 5 -42 -24 -24 -24 -31 4 -66 13 -15 31 -41 41
-57 16 -25 22 -28 55 -23 20 3 46 9 59 13 20 6 10 -14 -57 -120 -47 -73 -75
-126 -67 -126 7 0 35 9 62 20 27 10 114 45 194 75 80 31 184 72 232 92 l88 35
152 -60 c341 -134 419 -163 428 -160 5 2 -11 35 -35 73 l-45 70 28 9 c45 14
93 56 109 95 14 33 14 100 1 194 -3 20 -5 19 227 105 l100 37 -177 3 c-174 2
-178 3 -202 27 -28 28 -53 32 -81 11 -15 -11 -23 -11 -44 0 -21 11 -28 11 -41
-1 -10 -9 -20 -11 -30 -5 -21 13 -124 12 -137 -1 -22 -22 -64 25 -154 177 -50
85 -94 154 -98 154 -3 0 -47 -69 -96 -152z m170 -30 l66 -111 -28 -23 c-33
-27 -41 -28 -67 -9 -29 22 -88 19 -115 -6 -15 -14 -26 -18 -34 -11 -7 6 -22
12 -33 14 -20 3 -15 14 55 130 42 70 79 128 83 128 4 0 37 -50 73 -112z m-447
-48 c5 -63 -16 -126 -53 -166 -48 -51 -105 -43 -105 15 0 27 46 111 60 111 13
0 13 -57 0 -65 -15 -10 -12 -75 3 -75 35 0 77 94 77 172 0 32 -3 38 -21 38
-12 0 -17 4 -14 11 4 5 17 9 28 7 18 -2 23 -11 25 -48z m-113 -22 c-26 -29
-55 -69 -66 -90 -54 -105 14 -204 101 -146 38 26 69 73 80 121 8 35 7 36 39
-66 35 -112 26 -160 -38 -195 -48 -27 -155 -55 -159 -41 -2 5 -15 23 -29 40
-14 16 -24 31 -22 32 2 2 31 11 64 21 120 37 182 94 158 148 -9 20 -10 19 -31
-15 -29 -50 -76 -77 -134 -77 -38 0 -50 5 -67 26 -12 15 -21 35 -21 45 0 41
58 138 123 207 57 59 58 53 2 -10z m532 -134 c8 -13 13 -29 10 -36 -4 -9 -6
-8 -6 3 -1 24 -38 52 -57 45 -15 -6 -15 -8 1 -26 14 -15 16 -23 7 -32 -18 -18
-42 -1 -42 29 0 22 -2 25 -10 13 -25 -39 -2 -110 36 -110 25 0 55 20 64 43 8
19 9 18 9 -11 1 -26 -7 -42 -33 -68 -73 -73 -144 -19 -116 86 16 58 58 100 94
93 15 -3 34 -16 43 -29z m154 26 c28 -15 49 -63 49 -110 0 -74 -71 -114 -128
-74 -33 23 -44 58 -33 105 18 80 58 108 112 79z m187 -22 c29 -32 42 -71 42
-131 0 -54 -20 -97 -44 -97 -33 0 -59 38 -81 120 -13 47 -26 93 -30 103 -4 10
-3 17 4 17 5 0 17 -23 26 -52 15 -51 39 -88 58 -88 18 0 47 32 47 52 0 27 -26
74 -45 82 -12 4 -14 0 -9 -20 6 -22 4 -25 -12 -22 -12 2 -20 13 -22 31 -3 23
0 27 21 27 13 0 33 -10 45 -22z m92 -66 c0 -7 7 -26 15 -42 26 -51 74 -31 76
32 1 41 38 -115 38 -163 2 -92 -66 -149 -176 -149 -64 0 -75 7 -48 30 8 7 15
23 15 37 0 23 1 23 63 17 57 -6 66 -4 91 17 20 18 28 36 32 69 4 43 4 43 -7
15 -16 -41 -28 -55 -49 -55 -30 0 -41 25 -56 127 -8 53 -21 107 -29 119 -8 12
-11 25 -7 29 7 7 41 -60 42 -83z m85 57 c10 -43 2 -45 -17 -4 -12 27 -13 35
-3 35 8 0 16 -14 20 -31z m-720 0 c15 26 24 8 9 -20 -15 -29 -18 -31 -55 -25
-35 6 -39 4 -39 -14 0 -12 7 -35 16 -51 13 -27 19 -30 45 -24 30 7 30 6 27
-32 -3 -33 -7 -38 -30 -41 -33 -4 -41 10 -63 103 -8 38 -21 75 -27 82 -8 10
-8 17 -1 24 8 8 13 5 18 -10 9 -28 21 -27 41 4 15 24 18 24 34 10 12 -11 20
-13 25 -6z m-491 -16 c-4 -16 -8 -29 -9 -31 -2 -3 -147 48 -154 54 -2 2 35 4
83 4 l86 0 -6 -27z m1456 23 c0 -5 -181 -69 -184 -65 -2 2 -6 19 -9 37 l-6 32
99 0 c55 0 100 -2 100 -4z m-520 -206 c7 -16 28 -39 46 -51 39 -24 45 -56 14
-84 -45 -41 -7 -91 63 -83 42 5 44 4 70 -36 14 -22 25 -42 23 -43 -2 -2 -20 4
-42 13 -21 10 -135 54 -253 100 -171 66 -218 81 -234 73 -10 -6 -42 -19 -70
-29 -29 -10 -133 -50 -231 -89 -99 -39 -181 -69 -182 -68 -5 7 133 207 143
207 7 0 31 18 54 40 l42 40 24 -22 c30 -28 85 -28 123 1 24 17 33 19 60 10 26
-10 38 -7 82 14 49 24 53 25 82 10 43 -22 102 -20 134 5 35 27 37 27 52 -8z"/>
<path d="M1156 601 c-3 -5 1 -14 9 -21 21 -17 19 -30 -5 -30 -12 0 -24 9 -29
22 l-8 23 -8 -24 c-17 -53 69 -106 109 -66 22 23 20 39 -10 74 -26 31 -48 39
-58 22z"/>
</g>
</svg>
