<?xml version="1.0" standalone="no"?>
<!DOCTYPE svg PUBLIC "-//W3C//DTD SVG 20010904//EN"
 "http://www.w3.org/TR/2001/REC-SVG-20010904/DTD/svg10.dtd">
<svg version="1.0" xmlns="http://www.w3.org/2000/svg"
 width="540.000000pt" height="557.000000pt" viewBox="0 0 540.000000 557.000000"
 preserveAspectRatio="xMidYMid meet">

<g transform="translate(0.000000,557.000000) scale(0.100000,-0.100000)"
fill="#000000" stroke="none">
<path d="M3665 5558 c-49 -5 -155 -23 -235 -40 -165 -36 -222 -38 -410 -19
-309 32 -573 -8 -806 -121 l-81 -39 -119 36 c-138 42 -364 88 -512 105 -155
18 -460 8 -587 -20 -448 -97 -740 -385 -855 -845 -54 -215 -66 -516 -30 -769
61 -431 219 -1048 377 -1476 74 -202 207 -479 284 -594 114 -169 256 -292 389
-336 54 -18 81 -21 165 -18 108 5 169 25 259 87 l45 31 28 -26 c112 -104 276
-160 503 -171 124 -6 235 9 345 47 32 11 60 18 62 16 2 -2 8 -100 13 -217 15
-350 35 -493 92 -669 57 -176 107 -270 193 -356 118 -119 234 -164 428 -164
133 0 221 15 377 66 351 113 545 373 630 848 18 98 39 314 56 558 l6 88 96 0
c116 0 283 22 399 50 267 67 523 246 603 421 22 50 26 141 9 203 -14 51 -88
129 -147 154 -76 33 -134 36 -267 12 -147 -25 -269 -37 -264 -24 2 5 37 69 78
143 260 471 476 1064 550 1513 63 381 49 633 -45 827 -42 85 -59 106 -178 226
-190 192 -372 306 -616 389 -249 84 -543 114 -835 84z m561 -167 c337 -63 623
-223 837 -468 87 -100 124 -184 144 -328 56 -397 -121 -1104 -441 -1760 -101
-206 -186 -363 -273 -499 -25 -38 -41 -72 -36 -76 4 -5 32 -15 62 -24 84 -24
242 -21 421 10 176 30 224 27 270 -16 26 -24 30 -35 30 -78 0 -38 -6 -57 -29
-88 -47 -64 -111 -119 -204 -178 -128 -80 -252 -122 -428 -146 -99 -14 -285
-14 -354 -1 -30 6 -52 6 -56 0 -3 -5 -13 -80 -23 -167 -29 -256 -85 -669 -106
-783 -39 -208 -93 -324 -199 -429 -175 -173 -571 -269 -793 -191 -161 56 -290
199 -358 397 -44 126 -69 425 -72 857 -1 141 -4 257 -6 257 -2 0 -25 -15 -51
-34 -68 -50 -163 -95 -250 -118 -97 -26 -282 -28 -391 -4 -208 46 -326 158
-277 261 32 68 100 101 307 149 66 15 135 38 162 54 45 26 148 138 148 161 0
6 -12 11 -27 11 -50 0 -163 29 -221 55 l-55 25 -44 -47 c-24 -27 -114 -129
-201 -228 -228 -261 -275 -309 -345 -346 -57 -31 -69 -34 -147 -34 -74 0 -93
4 -145 30 -233 116 -467 554 -670 1255 -96 334 -180 708 -226 1010 -19 126
-21 171 -16 340 8 272 41 428 130 605 163 329 459 501 895 522 245 11 557 -37
858 -133 l111 -35 54 32 c172 101 364 149 599 149 116 0 269 -16 367 -38 33
-8 54 -6 100 10 72 23 271 64 378 77 133 16 443 6 571 -18z"/>
<path d="M3626 5245 c-54 -8 -106 -17 -115 -20 -10 -4 17 -23 82 -58 262 -140
500 -367 668 -637 76 -122 166 -317 189 -407 24 -91 21 -184 -11 -413 -25
-177 -27 -330 -6 -515 27 -236 29 -280 17 -387 -12 -110 -55 -254 -95 -324
-20 -35 -22 -44 -11 -53 15 -13 31 9 137 194 374 653 630 1536 570 1959 -16
113 -45 167 -141 269 -186 197 -404 316 -692 379 -123 26 -447 34 -592 13z"/>
<path d="M2610 5189 c-409 -72 -679 -360 -810 -862 -28 -107 -60 -289 -60
-341 l0 -25 74 34 c297 138 553 137 707 -2 78 -70 115 -159 148 -353 70 -419
46 -673 -96 -994 -44 -100 -133 -339 -133 -356 0 -6 24 -10 53 -10 104 0 201
-71 254 -185 l27 -60 2 -450 c3 -615 21 -855 75 -997 57 -146 149 -240 268
-275 78 -22 228 -13 346 22 283 83 373 198 430 549 34 208 102 756 115 923 6
76 15 171 20 211 16 124 72 204 170 246 25 11 46 21 48 22 2 1 -27 42 -64 90
-67 90 -161 262 -348 639 -151 304 -206 481 -206 668 0 108 18 180 62 249 84
133 223 191 461 191 70 0 127 4 127 8 0 18 -74 174 -121 256 -201 352 -518
622 -864 736 -164 55 -248 68 -445 72 -102 2 -210 0 -240 -6z"/>
<path d="M1110 5184 c-14 -2 -56 -9 -95 -15 -383 -62 -615 -316 -680 -744 -20
-131 -19 -388 1 -524 57 -392 214 -1016 345 -1374 187 -508 376 -787 535 -787
68 0 119 35 217 148 144 166 246 282 321 365 l68 77 -60 65 c-106 113 -177
259 -202 418 -13 81 -10 206 11 397 7 70 9 203 4 395 -7 317 0 423 42 639 58
303 187 589 344 761 l50 54 -83 25 c-232 70 -394 96 -618 101 -96 2 -186 2
-200 -1z"/>
<path d="M3980 3946 c-67 -19 -105 -41 -138 -81 -38 -47 -52 -96 -52 -186 1
-187 87 -421 301 -814 59 -110 113 -215 120 -232 6 -18 14 -33 18 -33 5 0 18
33 31 73 33 104 38 295 14 498 -24 200 -22 366 5 556 12 84 21 170 19 190 l-3
38 -135 2 c-84 1 -152 -3 -180 -11z m161 -67 c12 -6 19 -20 19 -37 -1 -73
-123 -137 -193 -101 -63 33 -84 81 -49 111 50 43 167 57 223 27z"/>
<path d="M2126 3929 c-109 -18 -327 -108 -375 -154 -11 -10 -14 -75 -15 -322
-2 -193 -7 -340 -16 -393 -33 -218 32 -432 175 -575 95 -96 227 -159 332 -160
l53 0 43 125 c24 69 65 174 92 234 101 232 128 351 128 561 0 199 -38 461 -81
559 -48 108 -170 153 -336 125z m223 -91 c39 -14 71 -49 71 -76 0 -33 -49 -78
-100 -92 -57 -15 -118 7 -160 58 -67 81 -17 138 109 126 30 -3 66 -10 80 -16z"/>
<path d="M4285 2128 c-62 -22 -89 -62 -100 -150 -6 -51 -5 -57 14 -67 42 -23
172 -32 294 -21 144 13 248 39 345 85 68 32 196 114 189 121 -1 2 -39 -3 -82
-11 -123 -23 -311 -30 -402 -16 -43 7 -106 26 -139 42 -67 32 -74 33 -119 17z"/>
<path d="M2453 2113 c-7 -2 -54 -54 -104 -114 -52 -64 -110 -122 -137 -139
-49 -31 -146 -64 -296 -99 -49 -11 -92 -23 -95 -26 -16 -17 85 -49 202 -66
199 -27 374 28 508 162 95 94 107 151 51 237 -26 40 -88 62 -129 45z"/>
</g>
</svg>
